<svg xmlns="http://www.w3.org/2000/svg" width="22" height="29" fill="none"><path fill="#7EB101" d="M10.5.333c2.022 0 3.75.706 5.183 2.117 1.434 1.411 2.15 3.128 2.15 5.15 0 1.156-.25 2.244-.75 3.267a7.368 7.368 0 0 1-2.116 2.6h-1.134V11.8a5.149 5.149 0 0 0 1.484-1.867 5.422 5.422 0 0 0 .516-2.333c0-1.467-.522-2.711-1.566-3.733-1.045-1.023-2.3-1.534-3.767-1.534s-2.722.511-3.767 1.534C5.69 4.889 5.167 6.133 5.167 7.6c0 .822.172 1.6.516 2.333A5.149 5.149 0 0 0 7.167 11.8v2.4a7.25 7.25 0 0 1-2.934-2.733A7.342 7.342 0 0 1 3.167 7.6c0-2.022.716-3.739 2.15-5.15C6.75 1.039 8.477.333 10.5.333Zm-1.267 28c-.377 0-.733-.072-1.066-.216a2.766 2.766 0 0 1-.867-.584L.433 20.667 2.3 18.733c.311-.31.661-.55 1.05-.716a1.827 1.827 0 0 1 1.217-.084l2.6.6V7.667c0-.934.322-1.723.966-2.367.645-.644 1.434-.967 2.367-.967s1.722.323 2.367.967c.644.644.966 1.433.966 2.367V13.4h.867c.111 0 .211.022.3.067.089.044.189.088.3.133l4.933 2.4c.534.244.928.639 1.184 1.183.255.545.327 1.106.216 1.684l-1.2 7.266a2.518 2.518 0 0 1-.933 1.584 2.692 2.692 0 0 1-1.733.616H9.233Zm-.266-2h9.366l1.434-8.3-6.1-3.033h-1.834V7.667c0-.4-.122-.723-.366-.967-.245-.244-.567-.367-.967-.367s-.722.123-.967.367c-.244.244-.366.567-.366.967v13.3l-5.134-1.1-.766.766 5.7 5.7Zm9.366 0H8.967h9.366Z"/></svg>